<svg width="94" height="94" viewBox="0 0 94 94" fill="none" xmlns="http://www.w3.org/2000/svg">
<path d="M90.1478 45.6833C90.1429 41.8885 89.0417 38.1759 86.9765 34.9923C84.9113 31.8087 81.9702 29.2896 78.507 27.7382V26.7669C78.5033 23.0745 77.2785 19.4869 75.0233 16.5632C72.7681 13.6395 69.6092 11.5438 66.0387 10.6026C62.4682 9.66136 58.6867 9.92755 55.2833 11.3596C51.8798 12.7917 49.0456 15.3093 47.2223 18.5201C45.3989 15.3093 42.5647 12.7917 39.1613 11.3596C35.7578 9.92755 31.9763 9.66136 28.4058 10.6026C24.8354 11.5438 21.6764 13.6395 19.4212 16.5632C17.166 19.4869 15.9412 23.0745 15.9375 26.7669V27.7382C12.4716 29.2844 9.52786 31.8015 7.46207 34.9852C5.39628 38.1688 4.29694 41.8827 4.29694 45.6778C4.29694 49.473 5.39628 53.1869 7.46207 56.3705C9.52786 59.5541 12.4716 62.0712 15.9375 63.6174V64.5996C15.9412 68.2921 17.166 71.8796 19.4212 74.8034C21.6764 77.7271 24.8354 79.8228 28.4058 80.764C31.9763 81.7052 35.7578 81.439 39.1613 80.0069C42.5647 78.5748 45.3989 76.0573 47.2223 72.8464C49.0456 76.0573 51.8798 78.5748 55.2833 80.0069C58.6867 81.439 62.4682 81.7052 66.0387 80.764C69.6092 79.8228 72.7681 77.7271 75.0233 74.8034C77.2785 71.8796 78.5033 68.2921 78.507 64.5996V63.6174C81.9701 62.069 84.9116 59.5522 86.977 56.3702C89.0424 53.1882 90.1436 49.4768 90.1478 45.6833ZM32.6712 76.968C29.4566 76.9696 26.3678 75.7196 24.059 73.4828C21.7503 71.246 20.403 68.1982 20.3028 64.9852C21.5021 65.2126 22.72 65.3271 23.9406 65.3272H26.8508C27.4297 65.3272 27.9848 65.0972 28.3942 64.6879C28.8035 64.2786 29.0335 63.7234 29.0335 63.1445C29.0335 62.5657 28.8035 62.0105 28.3942 61.6012C27.9848 61.1918 27.4297 60.9619 26.8508 60.9619H23.9406C20.3342 60.9648 16.8431 59.692 14.0849 57.3686C11.3267 55.0452 9.47932 51.821 8.86957 48.2666C8.25981 44.7121 8.92703 41.0566 10.7532 37.9468C12.5793 34.8369 15.4466 32.4733 18.8477 31.2741C19.2735 31.1236 19.642 30.8447 19.9026 30.476C20.1632 30.1072 20.3031 29.6667 20.3028 29.2151V26.7669C20.3028 23.4866 21.6059 20.3407 23.9254 18.0212C26.245 15.7016 29.3909 14.3985 32.6712 14.3985C35.9515 14.3985 39.0975 15.7016 41.417 18.0212C43.7365 20.3407 45.0396 23.4866 45.0396 26.7669V53.3408C43.4739 51.6159 41.5647 50.2378 39.4346 49.2949C37.3045 48.352 35.0007 47.8653 32.6712 47.8659C32.0923 47.8659 31.5372 48.0959 31.1278 48.5052C30.7185 48.9145 30.4886 49.4697 30.4886 50.0486C30.4886 50.6275 30.7185 51.1826 31.1278 51.592C31.5372 52.0013 32.0923 52.2313 32.6712 52.2313C35.9515 52.2313 39.0975 53.5343 41.417 55.8539C43.7365 58.1734 45.0396 61.3193 45.0396 64.5996C45.0396 67.8799 43.7365 71.0259 41.417 73.3454C39.0975 75.6649 35.9515 76.968 32.6712 76.968ZM70.5039 60.9619H67.5937C67.0148 60.9619 66.4597 61.1918 66.0503 61.6012C65.641 62.0105 65.4111 62.5657 65.4111 63.1445C65.4111 63.7234 65.641 64.2786 66.0503 64.6879C66.4597 65.0972 67.0148 65.3272 67.5937 65.3272H70.5039C71.7245 65.3271 72.9424 65.2126 74.1417 64.9852C74.0659 67.4136 73.2767 69.7659 71.8724 71.7485C70.4681 73.7311 68.511 75.2563 66.2454 76.1335C63.9797 77.0108 61.5059 77.2014 59.1326 76.6815C56.7593 76.1616 54.5917 74.9543 52.9004 73.2102C51.209 71.466 50.0687 69.2624 49.6219 66.8743C49.1751 64.4862 49.4415 62.0193 50.3879 59.7817C51.3343 57.544 52.9188 55.6347 54.9436 54.2919C56.9683 52.9491 59.3437 52.2324 61.7733 52.2313C62.3522 52.2313 62.9073 52.0013 63.3167 51.592C63.726 51.1826 63.956 50.6275 63.956 50.0486C63.956 49.4697 63.726 48.9145 63.3167 48.5052C62.9073 48.0959 62.3522 47.8659 61.7733 47.8659C59.4438 47.8653 57.14 48.352 55.0099 49.2949C52.8798 50.2378 50.9706 51.6159 49.4049 53.3408V26.7669C49.4049 23.4866 50.708 20.3407 53.0275 18.0212C55.3471 15.7016 58.493 14.3985 61.7733 14.3985C65.0536 14.3985 68.1995 15.7016 70.5191 18.0212C72.8386 20.3407 74.1417 23.4866 74.1417 26.7669V29.2151C74.1414 29.6667 74.2813 30.1072 74.5419 30.476C74.8025 30.8447 75.1711 31.1236 75.5968 31.2741C78.9979 32.4733 81.8652 34.8369 83.6914 37.9468C85.5175 41.0566 86.1847 44.7121 85.5749 48.2666C84.9652 51.821 83.1178 55.0452 80.3596 57.3686C77.6014 59.692 74.1103 60.9648 70.5039 60.9619ZM75.5968 41.318C75.5968 41.8968 75.3668 42.452 74.9575 42.8613C74.5482 43.2707 73.993 43.5006 73.4141 43.5006H71.959C68.6787 43.5006 65.5328 42.1975 63.2133 39.878C60.8937 37.5585 59.5906 34.4125 59.5906 31.1322V29.6771C59.5906 29.0983 59.8206 28.5431 60.2299 28.1338C60.6393 27.7244 61.1944 27.4945 61.7733 27.4945C62.3522 27.4945 62.9073 27.7244 63.3167 28.1338C63.726 28.5431 63.956 29.0983 63.956 29.6771V31.1322C63.956 33.2548 64.7991 35.2904 66.3 36.7913C67.8009 38.2921 69.8365 39.1353 71.959 39.1353H73.4141C73.993 39.1353 74.5482 39.3653 74.9575 39.7746C75.3668 40.1839 75.5968 40.7391 75.5968 41.318ZM22.4855 43.5006H21.0304C20.4515 43.5006 19.8963 43.2707 19.487 42.8613C19.0777 42.452 18.8477 41.8968 18.8477 41.318C18.8477 40.7391 19.0777 40.1839 19.487 39.7746C19.8963 39.3653 20.4515 39.1353 21.0304 39.1353H22.4855C24.608 39.1353 26.6436 38.2921 28.1445 36.7913C29.6454 35.2904 30.4886 33.2548 30.4886 31.1322V29.6771C30.4886 29.0983 30.7185 28.5431 31.1278 28.1338C31.5372 27.7244 32.0923 27.4945 32.6712 27.4945C33.2501 27.4945 33.8053 27.7244 34.2146 28.1338C34.6239 28.5431 34.8539 29.0983 34.8539 29.6771V31.1322C34.8539 34.4125 33.5508 37.5585 31.2313 39.878C28.9117 42.1975 25.7658 43.5006 22.4855 43.5006Z" fill="black"/>
</svg>
