<svg width="96" height="96" viewBox="0 0 96 96" fill="none" xmlns="http://www.w3.org/2000/svg">
<path d="M83.4919 39.2759C82.0562 37.7776 80.5726 36.2315 79.9762 34.7921C79.424 33.4557 79.3946 31.4789 79.3615 29.3879C79.3099 25.9348 79.251 22.0253 76.6299 19.4042C74.0088 16.7831 70.0846 16.7242 66.6462 16.6726C64.5552 16.6395 62.5968 16.61 61.242 16.0579C59.8026 15.4615 58.2565 13.9779 56.7582 12.5422C54.3138 10.2009 51.5454 7.54297 47.9967 7.54297C44.4479 7.54297 41.6795 10.2009 39.2351 12.5422C37.7368 13.9779 36.1907 15.4615 34.7513 16.0579C33.415 16.61 31.4381 16.6395 29.3471 16.6726C25.894 16.7242 21.9845 16.7831 19.3634 19.4042C16.7423 22.0253 16.6834 25.9495 16.6319 29.3879C16.5987 31.4789 16.5693 33.4373 16.0171 34.7921C15.4207 36.2315 13.9371 37.7776 12.5014 39.2759C10.1601 41.7203 7.5022 44.4886 7.5022 48.0374C7.5022 51.5862 10.1601 54.3546 12.5014 56.799C13.9371 58.2973 15.4207 59.8434 16.0171 61.2828C16.5693 62.6191 16.5987 64.596 16.6319 66.687C16.6834 70.14 16.7423 74.0496 19.3634 76.6707C21.9845 79.2918 25.9088 79.3507 29.3471 79.4022C31.4381 79.4354 33.3966 79.4648 34.7513 80.017C36.1907 80.6134 37.7368 82.097 39.2351 83.5327C41.6795 85.874 44.4479 88.5319 47.9967 88.5319C51.5454 88.5319 54.3138 85.874 56.7582 83.5327C58.2565 82.097 59.8026 80.6134 61.242 80.017C62.5783 79.4648 64.5552 79.4354 66.6462 79.4022C70.0993 79.3507 74.0088 79.2918 76.6299 76.6707C79.251 74.0496 79.3099 70.14 79.3615 66.687C79.3946 64.596 79.424 62.6375 79.9762 61.2828C80.5726 59.8434 82.0562 58.2973 83.4919 56.799C85.8332 54.3546 88.4911 51.5862 88.4911 48.0374C88.4911 44.4886 85.8332 41.7203 83.4919 39.2759ZM80.3039 53.7435C78.5847 55.5326 76.8066 57.388 75.8863 59.5968C75.0101 61.7098 74.9733 64.2058 74.9365 66.6207C74.896 69.3596 74.8518 72.1942 73.5008 73.5489C72.1498 74.9037 69.3115 74.9442 66.5726 74.9847C64.1576 75.0215 61.6617 75.0583 59.5486 75.9344C57.3398 76.8474 55.4992 78.6255 53.6917 80.352C51.759 82.1927 49.76 84.1217 47.9893 84.1217C46.2186 84.1217 44.2196 82.2037 42.2833 80.352C40.4941 78.6328 38.6388 76.8548 36.43 75.9344C34.3169 75.0583 31.821 75.0215 29.406 74.9847C26.6671 74.9442 23.8325 74.9 22.4778 73.5489C21.1231 72.1979 21.0826 69.3596 21.0421 66.6207C21.0053 64.2058 20.9684 61.7098 20.0923 59.5968C19.1793 57.388 17.4013 55.5473 15.6747 53.7398C13.8377 51.8071 11.9198 49.8081 11.9198 48.0374C11.9198 46.2667 13.8377 44.2678 15.6894 42.3314C17.4086 40.5423 19.1867 38.6869 20.107 36.4781C20.9832 34.365 21.02 31.8691 21.0568 29.4542C21.0973 26.7153 21.1415 23.8806 22.4925 22.5259C23.8436 21.1712 26.6818 21.1307 29.4207 21.0902C31.8357 21.0534 34.3316 21.0166 36.4447 20.1404C38.6535 19.2275 40.4941 17.4494 42.3017 15.7229C44.227 13.8785 46.2259 11.9605 47.9967 11.9605C49.7674 11.9605 51.7663 13.8785 53.7027 15.7302C55.4918 17.4494 57.3472 19.2275 59.556 20.1478C61.6691 21.0239 64.165 21.0608 66.5799 21.0976C69.3188 21.1381 72.1535 21.1822 73.5082 22.5333C74.8629 23.8843 74.9034 26.7226 74.9439 29.4615C74.9807 31.8765 75.0175 34.3724 75.8937 36.4855C76.8066 38.6943 78.5847 40.5349 80.3112 42.3424C82.1519 44.2751 84.0809 46.2741 84.0809 48.0448C84.0809 49.8155 82.1556 51.8071 80.3039 53.7435ZM64.2828 37.6414C64.6964 38.0555 64.9288 38.6169 64.9288 39.2023C64.9288 39.7876 64.6964 40.349 64.2828 40.7632L43.6674 61.3785C43.2533 61.7922 42.6919 62.0245 42.1066 62.0245C41.5212 62.0245 40.9598 61.7922 40.5457 61.3785L31.7105 52.5434C31.3204 52.1247 31.108 51.5708 31.1181 50.9986C31.1281 50.4264 31.36 49.8804 31.7646 49.4757C32.1693 49.071 32.7153 48.8392 33.2875 48.8291C33.8598 48.819 34.4136 49.0314 34.8323 49.4216L42.1066 56.6922L61.161 37.6414C61.5752 37.2278 62.1366 36.9954 62.7219 36.9954C63.3073 36.9954 63.8687 37.2278 64.2828 37.6414Z" fill="black"/>
</svg>
