<svg width="91" height="90" viewBox="0 0 91 90" fill="none" xmlns="http://www.w3.org/2000/svg">
<path d="M57.1151 10.4041H34.1653C32.2353 10.3105 30.3463 10.9816 28.908 12.272C27.4698 13.5623 26.5985 15.3678 26.483 17.2965V39.9371C26.5562 43.6609 27.6441 47.2941 29.6294 50.4453C31.6146 53.5965 34.4221 56.1464 37.7493 57.8201C40.18 59.1083 42.8892 59.7818 45.6402 59.7818C48.3911 59.7818 51.1003 59.1083 53.531 57.8201C56.8582 56.1464 59.6657 53.5965 61.651 50.4453C63.6362 47.2941 64.7241 43.6609 64.7973 39.9371V17.2965C64.6819 15.3678 63.8105 13.5623 62.3723 12.272C60.9341 10.9816 59.045 10.3105 57.1151 10.4041Z" stroke="black" stroke-width="4.39745" stroke-linecap="round"/>
<path d="M64.7971 17.2971H72.4495C74.3738 17.2125 76.2543 17.8877 77.6852 19.1772C79.1161 20.4666 79.9828 22.2668 80.0982 24.1895C80.0865 28.5104 78.9707 32.7565 76.8569 36.525C74.6437 40.4212 71.5529 43.748 67.8298 46.2415L64.7971 48.3092L61.8353 50.1012M26.4829 17.2971H18.8305C16.9062 17.2125 15.0257 17.8877 13.5948 19.1772C12.1639 20.4666 11.2972 22.2668 11.1818 24.1895C11.1929 28.5112 12.3069 32.7584 14.4231 36.525C16.6363 40.4212 19.7271 43.748 23.4502 46.2415L26.4829 48.3092L29.4447 50.1012M37.9913 68.9826V57.9213M53.2887 68.9826V57.9213M33.7553 68.9826H57.5247C58.4797 68.9826 59.4254 69.1707 60.3077 69.5362C61.1901 69.9017 61.9918 70.4374 62.6671 71.1127C63.3424 71.788 63.8781 72.5897 64.2435 73.472C64.609 74.3543 64.7971 75.3 64.7971 76.255V77.4957C64.7971 77.9798 64.6048 78.4442 64.2624 78.7865C63.9201 79.1289 63.4557 79.3212 62.9716 79.3212H28.3084C27.8243 79.3212 27.3599 79.1289 27.0176 78.7865C26.6752 78.4442 26.4829 77.9798 26.4829 77.4957V76.255C26.4829 74.3269 27.2486 72.4777 28.6116 71.114C29.9746 69.7502 31.8234 68.9836 33.7516 68.9826H33.7553Z" stroke="black" stroke-width="4.39745" stroke-linecap="round"/>
<path d="M46.173 38.5548L50.5692 40.8647C50.7551 40.9613 50.9643 41.0042 51.1732 40.9884C51.3821 40.9726 51.5825 40.8988 51.7517 40.7752C51.921 40.6517 52.0523 40.4834 52.1311 40.2892C52.2098 40.095 52.2327 39.8827 52.1973 39.6762L51.3553 34.7845C51.3241 34.6042 51.3373 34.4191 51.3938 34.2451C51.4503 34.0711 51.5483 33.9135 51.6794 33.786L55.2374 30.3212C55.3904 30.1762 55.4992 29.9909 55.5514 29.7867C55.6036 29.5825 55.5969 29.3677 55.5323 29.1671C55.4676 28.9665 55.3476 28.7883 55.186 28.653C55.0243 28.5177 54.8278 28.4308 54.6189 28.4025L49.7048 27.6946C49.5258 27.6677 49.3559 27.5977 49.2099 27.4906C49.0639 27.3835 48.9461 27.2426 48.8666 27.0799L46.62 22.5905C46.5273 22.4019 46.3835 22.243 46.2051 22.1319C46.0266 22.0208 45.8206 21.9619 45.6104 21.9619C45.4002 21.9619 45.1942 22.0208 45.0157 22.1319C44.8373 22.243 44.6935 22.4019 44.6008 22.5905L42.3579 27.0799C42.2778 27.2429 42.1594 27.384 42.0127 27.491C41.8661 27.5981 41.6956 27.668 41.5159 27.6946L36.6726 28.4025C36.4634 28.4299 36.2661 28.5158 36.1035 28.6503C35.9408 28.7848 35.8195 28.9625 35.7533 29.1629C35.6871 29.3633 35.6789 29.5783 35.7295 29.7832C35.7801 29.9881 35.8875 30.1746 36.0393 30.3212L39.5973 33.786C39.7293 33.913 39.8282 34.0704 39.8854 34.2444C39.9425 34.4185 39.9562 34.6039 39.9251 34.7845L39.0831 39.6762C39.0443 39.8832 39.0648 40.0969 39.1421 40.2927C39.2195 40.4886 39.3506 40.6586 39.5203 40.7832C39.6901 40.9077 39.8916 40.9818 40.1016 40.9969C40.3117 41.012 40.5217 40.9674 40.7075 40.8684L45.1037 38.5585C45.2677 38.4692 45.4516 38.4223 45.6383 38.4223C45.8251 38.4223 46.0089 38.4692 46.173 38.5585" stroke="black" stroke-width="3.42024" stroke-linecap="round" stroke-linejoin="round"/>
</svg>
