<svg width="90" height="91" viewBox="0 0 90 91" fill="none" xmlns="http://www.w3.org/2000/svg">
<g clip-path="url(#clip0_593_11)">
<path d="M61.8753 55.4743L72.7096 90.1614L44.7502 68.6676L16.7909 90.1614L27.6251 55.4743L0.0152588 34.2426H34.2655L44.7502 0.691406L55.235 34.2426H89.4852L61.8753 55.4743ZM62.0938 74.9585C60.987 71.347 59.8803 67.7647 58.7736 64.2116C57.6669 60.6584 56.531 57.0616 55.3661 53.421C58.3659 51.1784 61.322 48.9213 64.2344 46.6496C67.1468 44.3779 70.0884 42.1062 73.0591 39.8345H51.1285L44.7502 19.4329L38.372 39.8345H16.4414C19.4121 42.1062 22.3536 44.3779 25.2661 46.6496C28.1785 48.9213 31.1346 51.1784 34.1344 53.421C32.9694 57.0324 31.8336 60.6147 30.7269 64.1679C29.6201 67.7211 28.5134 71.3179 27.4067 74.9585L44.7502 61.5904L62.0938 74.9585Z" fill="black"/>
</g>
<defs>
<clipPath id="clip0_593_11">
<rect width="89.4699" height="89.4699" fill="white" transform="translate(0.0153809 0.691406)"/>
</clipPath>
</defs>
</svg>
